<svg width="126" height="80" viewBox="0 0 126 80" fill="none" xmlns="http://www.w3.org/2000/svg">
<g id="Group 25">
<path id="Vector" d="M113 33C115.209 33 117 31.2091 117 29C117 26.7909 115.209 25 113 25C110.791 25 109 26.7909 109 29C109 31.2091 110.791 33 113 33Z" fill="#FFCF54"/>
<path id="Vector_2" d="M122 24C124.209 24 126 22.2091 126 20C126 17.7909 124.209 16 122 16C119.791 16 118 17.7909 118 20C118 22.2091 119.791 24 122 24Z" fill="#FFCF54"/>
<path id="Vector_3" d="M33 65L96 2" stroke="#6E7095" stroke-width="3" stroke-miterlimit="10" stroke-linecap="round"/>
<path id="Vector_4" d="M2 78L59 22" stroke="#6E7095" stroke-width="3" stroke-miterlimit="10" stroke-linecap="round"/>
<path id="Vector_5" d="M76 63C81.5228 63 86 58.5228 86 53C86 47.4772 81.5228 43 76 43C70.4772 43 66 47.4772 66 53C66 58.5228 70.4772 63 76 63Z" fill="#CEF0E6"/>
</g>
</svg>
