<svg width="137" height="137" viewBox="0 0 137 137" fill="none" xmlns="http://www.w3.org/2000/svg">
<g id="Group 26">
<path id="Vector" d="M98.9324 9.10955C80.1562 4.07848 60.8566 15.2211 55.8255 33.9973C50.7944 52.7736 61.9371 72.0732 80.7133 77.1043C99.4895 82.1354 118.789 70.9927 123.82 52.2165C128.851 33.4402 117.709 14.1406 98.9324 9.10955Z" fill="#FFCF54"/>
<path id="Vector_2" d="M130.25 135.142C128.344 136.243 126.005 135.616 124.904 133.71L116.588 119.305C115.487 117.399 116.114 115.06 118.02 113.959C119.927 112.859 122.266 113.485 123.366 115.392L131.683 129.796C132.7 131.68 132.073 134.019 130.25 135.142Z" fill="#31346B"/>
<path id="Vector_3" d="M113.543 130.666C112.442 128.759 113.069 126.42 114.976 125.319L129.38 117.003C131.286 115.902 133.625 116.529 134.726 118.436C135.827 120.342 135.2 122.681 133.293 123.782L118.889 132.098C117.005 133.115 114.666 132.488 113.543 130.666Z" fill="#31346B"/>
<path id="Vector_4" d="M71.766 115.174C70.2898 114.778 68.7723 115.654 68.3768 117.131C67.9812 118.607 68.8573 120.124 70.3336 120.52C71.8098 120.916 73.3273 120.039 73.7228 118.563C74.1184 117.087 73.2423 115.57 71.766 115.174Z" fill="#31346B"/>
<path id="Vector_5" d="M72.0699 103.348C72.4504 101.928 73.9556 100.988 75.4591 101.391C76.8792 101.772 77.8188 103.277 77.4159 104.78C77.0354 106.2 75.5303 107.14 74.0267 106.737C72.5231 106.334 71.6894 104.768 72.0699 103.348Z" fill="#31346B"/>
<path id="Vector_6" d="M58.3174 111.57C56.8411 111.175 55.3237 112.051 54.9281 113.527C54.5325 115.004 55.4086 116.521 56.8849 116.916C58.3612 117.312 59.8785 116.436 60.2741 114.96C60.6697 113.483 59.7936 111.966 58.3174 111.57Z" fill="#31346B"/>
<path id="Vector_7" d="M58.6212 99.7446C59.0017 98.3246 60.5069 97.385 62.0105 97.7879C63.4305 98.1684 64.3701 99.6735 63.9672 101.177C63.5867 102.597 62.0816 103.537 60.578 103.134C59.158 102.753 58.2407 101.165 58.6212 99.7446Z" fill="#31346B"/>
<path id="Vector_8" d="M98.914 122.448C97.4377 122.053 95.9203 122.929 95.5247 124.405C95.1292 125.881 96.0053 127.399 97.4815 127.794C98.9578 128.19 100.475 127.314 100.871 125.837C101.266 124.361 100.39 122.844 98.914 122.448Z" fill="#31346B"/>
<path id="Vector_9" d="M99.2178 110.622C99.5983 109.202 101.104 108.262 102.607 108.665C104.027 109.046 104.967 110.551 104.564 112.055C104.183 113.475 102.678 114.414 101.175 114.011C99.6711 113.608 98.8373 112.042 99.2178 110.622Z" fill="#31346B"/>
<path id="Vector_10" d="M85.4653 118.845C83.989 118.449 82.4716 119.325 82.076 120.802C81.6805 122.278 82.5566 123.795 84.0328 124.191C85.5091 124.586 87.0265 123.71 87.422 122.234C87.8176 120.758 86.9416 119.24 85.4653 118.845Z" fill="#31346B"/>
<path id="Vector_11" d="M85.7694 107.019C86.1499 105.599 87.6551 104.659 89.1587 105.062C90.5787 105.443 91.5183 106.948 91.1154 108.451C90.7349 109.871 89.2298 110.811 87.7262 110.408C86.3062 110.028 85.3889 108.439 85.7694 107.019Z" fill="#31346B"/>
<path id="Vector_12" d="M17.4706 100.625C15.9944 100.23 14.4769 101.106 14.0814 102.582C13.6858 104.058 14.5619 105.576 16.0382 105.971C17.5144 106.367 19.0318 105.491 19.4274 104.015C19.823 102.538 18.9469 101.021 17.4706 100.625Z" fill="#31346B"/>
<path id="Vector_13" d="M17.7745 88.7994C18.155 87.3794 19.6602 86.4398 21.1637 86.8427C22.5838 87.2231 23.5234 88.7283 23.1205 90.2319C22.74 91.6519 21.2348 92.5916 19.7313 92.1887C18.3112 91.8082 17.394 90.2195 17.7745 88.7994Z" fill="#31346B"/>
<path id="Vector_14" d="M0.716128 99.0012C1.09663 97.5812 2.60182 96.6416 4.10539 97.0444C5.52542 97.4249 6.46505 98.9301 6.06217 100.434C5.68168 101.854 4.17649 102.793 2.67292 102.39C1.16935 101.988 0.33563 100.421 0.716128 99.0012Z" fill="#31346B"/>
<path id="Vector_15" d="M4.40949 85.2181C4.78999 83.7981 6.29517 82.8585 7.79874 83.2614C9.21878 83.6419 10.1584 85.147 9.75553 86.6506C9.37504 88.0706 7.86985 89.0103 6.36628 88.6074C4.86271 88.2045 4.02899 86.6382 4.40949 85.2181Z" fill="#31346B"/>
<path id="Vector_16" d="M44.6183 107.9C43.1421 107.504 41.6246 108.38 41.2291 109.856C40.8335 111.333 41.7096 112.85 43.1859 113.246C44.6621 113.641 46.1796 112.765 46.5751 111.289C46.9707 109.813 46.0946 108.295 44.6183 107.9Z" fill="#31346B"/>
<path id="Vector_17" d="M45.0055 96.096C45.386 94.6759 46.8911 93.7363 48.3947 94.1392C49.8147 94.5197 50.7544 96.0248 50.3515 97.5284C49.971 98.9485 48.4658 99.8881 46.9622 99.4852C45.4587 99.0823 44.625 97.516 45.0055 96.096Z" fill="#31346B"/>
<path id="Vector_18" d="M31.2531 104.319C29.7768 103.923 28.2594 104.799 27.8638 106.276C27.4683 107.752 28.3444 109.269 29.8206 109.665C31.2969 110.06 32.8143 109.184 33.2099 107.708C33.6054 106.232 32.7294 104.714 31.2531 104.319Z" fill="#31346B"/>
<path id="Vector_19" d="M31.5574 92.4923C31.9379 91.0723 33.4431 90.1326 34.9467 90.5355C36.3667 90.916 37.3064 92.4212 36.9035 93.9248C36.523 95.3448 35.0178 96.2844 33.5142 95.8815C32.0107 95.4787 31.1769 93.9124 31.5574 92.4923Z" fill="#31346B"/>
</g>
</svg>
